<svg xmlns="http://www.w3.org/2000/svg" viewBox="0 0 313.33 106.28"><defs><style>.cls-1{fill:#3168b2;}.cls-2{fill:#2cbdbe;}.cls-3{fill:#fff;}</style></defs><g id="Layer_2" data-name="Layer 2"><g id="Layer_1-2" data-name="Layer 1"><path class="cls-1" d="M21.9,89.17a22.15,22.15,0,0,1-11.36-2.88,20.28,20.28,0,0,1-7.74-8A23.88,23.88,0,0,1,0,66.63,23.27,23.27,0,0,1,2.92,54.87a21,21,0,0,1,8-8A23.17,23.17,0,0,1,22.54,44a23.15,23.15,0,0,1,11.64,2.88,20.76,20.76,0,0,1,8,8,24.24,24.24,0,0,1,3,11.76l-3.65,2a22.06,22.06,0,0,1-2.52,10.66A18.53,18.53,0,0,1,32,86.54,19.3,19.3,0,0,1,21.9,89.17Zm.81,17.11a25.2,25.2,0,0,1-11.28-2.39,22.22,22.22,0,0,1-8-6.53,2.53,2.53,0,0,1,.4-4,3,3,0,0,1,2.35-.49,3.19,3.19,0,0,1,2,1.22,17.24,17.24,0,0,0,6,4.7,19.43,19.43,0,0,0,8.56,1.79A15.64,15.64,0,0,0,31,98.42a15.88,15.88,0,0,0,5.8-6.16,19.36,19.36,0,0,0,2.14-9.33V70.6l2.36-4.7,3.81.73V83.17A23.87,23.87,0,0,1,42.17,95a22,22,0,0,1-8,8.27A21.77,21.77,0,0,1,22.71,106.28ZM22.54,83.5A16.57,16.57,0,0,0,31,81.35a15.39,15.39,0,0,0,5.8-6,17.85,17.85,0,0,0,2.1-8.76,18.09,18.09,0,0,0-2.1-8.8,15.29,15.29,0,0,0-5.8-6,16.57,16.57,0,0,0-8.48-2.15A16.74,16.74,0,0,0,14,51.83a15.19,15.19,0,0,0-5.84,6,18,18,0,0,0-2.11,8.8,17.74,17.74,0,0,0,2.11,8.76,15.28,15.28,0,0,0,5.84,6A16.74,16.74,0,0,0,22.54,83.5Z"/><path class="cls-1" d="M57.16,88.77a2.81,2.81,0,0,1-3.08-3.08V47.49a3.09,3.09,0,1,1,6.16,0v38.2a2.81,2.81,0,0,1-3.08,3.08Zm-.49-27.33a19,19,0,0,1,2.64-9,17.79,17.79,0,0,1,6.24-6.25,16.58,16.58,0,0,1,8.56-2.27A12.8,12.8,0,0,1,79.87,45a2.55,2.55,0,0,1,1.54,3.08,2.4,2.4,0,0,1-1.1,1.62,3.42,3.42,0,0,1-1.86.33L76,49.84a18,18,0,0,0-8.07.94,12.18,12.18,0,0,0-5.59,4.09,10.64,10.64,0,0,0-2.07,6.57Z"/><path class="cls-1" d="M103.37,89.17a22.89,22.89,0,0,1-11.59-2.92,21.18,21.18,0,0,1-8-8,22.93,22.93,0,0,1-2.92-11.6A23.1,23.1,0,0,1,83.75,55a21.28,21.28,0,0,1,8-8,24.4,24.4,0,0,1,23.15,0,21.39,21.39,0,0,1,8,8,23.87,23.87,0,0,1,3,11.68,22.75,22.75,0,0,1-3,11.6,21.61,21.61,0,0,1-8,8A22.7,22.7,0,0,1,103.37,89.17Zm0-5.67a16.36,16.36,0,0,0,8.44-2.19,15.66,15.66,0,0,0,5.84-6,17.7,17.7,0,0,0,2.1-8.68,17.94,17.94,0,0,0-2.1-8.72,15.56,15.56,0,0,0-5.84-6,17.34,17.34,0,0,0-16.87,0,15.73,15.73,0,0,0-5.88,6,17.64,17.64,0,0,0-2.15,8.72,17.41,17.41,0,0,0,2.15,8.68,15.83,15.83,0,0,0,5.88,6A16.35,16.35,0,0,0,103.37,83.5Z"/><path class="cls-1" d="M144.12,88.77a3.16,3.16,0,0,1-1.87-.57,3,3,0,0,1-1.13-1.46L128.47,48.79a4.78,4.78,0,0,1,.08-3.2,2.25,2.25,0,0,1,2.27-1.18,3.15,3.15,0,0,1,1.86.57,3.4,3.4,0,0,1,1.22,1.78l11.27,34.47h-1.78l10.46-34.39a3.75,3.75,0,0,1,1.09-1.74,2.89,2.89,0,0,1,2-.69,3,3,0,0,1,2,.65A3.51,3.51,0,0,1,160,46.84l10,33.58h-1.38l11-33.66a3,3,0,0,1,3-2.35,2.45,2.45,0,0,1,2.43,1.34,3.73,3.73,0,0,1,0,3L172.42,86.74a3.06,3.06,0,0,1-1.1,1.46,3,3,0,0,1-1.82.57,3.38,3.38,0,0,1-1.91-.57,2.53,2.53,0,0,1-1.09-1.46l-10.22-33.9h1L147,86.74a2.79,2.79,0,0,1-1.14,1.5A3.2,3.2,0,0,1,144.12,88.77Z"/><path class="cls-1" d="M192.82,51.47a2.85,2.85,0,0,1-2-.77,2.54,2.54,0,0,1-.81-1.91,2.64,2.64,0,0,1,.81-2,2.85,2.85,0,0,1,2-.77H213.5a2.83,2.83,0,0,1,2,.77,2.64,2.64,0,0,1,.81,2,2.54,2.54,0,0,1-.81,1.91,2.83,2.83,0,0,1-2,.77ZM213,88.77a14.41,14.41,0,0,1-13-7.58,16.42,16.42,0,0,1-1.95-8.07V33.46a3.15,3.15,0,0,1,.85-2.27,3,3,0,0,1,2.23-.89,3,3,0,0,1,3.16,3.16V73.12a9.57,9.57,0,0,0,2.44,6.77A8.09,8.09,0,0,0,213,82.52h2.19a2.72,2.72,0,0,1,2.11.9,3.24,3.24,0,0,1,.81,2.27,2.85,2.85,0,0,1-1,2.23,3.61,3.61,0,0,1-2.44.85Z"/><path class="cls-1" d="M229.83,70.68a3,3,0,0,1-2.31-.89,3.13,3.13,0,0,1-.85-2.27V28.6a3.09,3.09,0,0,1,.85-2.31,3.12,3.12,0,0,1,2.31-.86,3,3,0,0,1,2.23.86,3.09,3.09,0,0,1,.85,2.31V67.52a3.13,3.13,0,0,1-.85,2.27A2.92,2.92,0,0,1,229.83,70.68Zm0,18.09a3.16,3.16,0,0,1-2.31-.85,3,3,0,0,1-.85-2.23V47.57a2.93,2.93,0,0,1,3.16-3.16,3,3,0,0,1,2.23.85,3.12,3.12,0,0,1,.85,2.31V85.69a3,3,0,0,1-.85,2.23A3,3,0,0,1,229.83,88.77Zm34.87,0a3.08,3.08,0,0,1-2.27-.89,3,3,0,0,1-.89-2.19V64.6a16.14,16.14,0,0,0-1.91-8.27,12.16,12.16,0,0,0-5.19-4.86,17.58,17.58,0,0,0-14.59-.09,12.8,12.8,0,0,0-5.07,4.22,10.32,10.32,0,0,0-1.87,6.08h-4.46a17.53,17.53,0,0,1,2.76-9.12,18.58,18.58,0,0,1,6.89-6.33,19.91,19.91,0,0,1,9.57-2.31,21.71,21.71,0,0,1,10.3,2.4,17.55,17.55,0,0,1,7.18,7,22.5,22.5,0,0,1,2.63,11.27V85.69a3,3,0,0,1-.89,2.19A3,3,0,0,1,264.7,88.77Z"/><path class="cls-2" d="M278.09,0h35.24a0,0,0,0,1,0,0V35.24a9,9,0,0,1-9,9H269.09a0,0,0,0,1,0,0V9A9,9,0,0,1,278.09,0Z"/><path class="cls-3" d="M283,34.48h-5V14.41h-2.5v-5H283Z"/><path class="cls-3" d="M307.71,21.94a20.16,20.16,0,0,1-.78,6,10.81,10.81,0,0,1-2.15,4,7.91,7.91,0,0,1-3.2,2.2,11.19,11.19,0,0,1-3.91.67,11,11,0,0,1-3.91-.69,7.92,7.92,0,0,1-3.18-2.22,11.12,11.12,0,0,1-2.15-4,20,20,0,0,1-.78-6,20.16,20.16,0,0,1,.78-6,11,11,0,0,1,2.15-4,7.78,7.78,0,0,1,3.18-2.2,11.42,11.42,0,0,1,7.82,0,8.08,8.08,0,0,1,3.2,2.23,11.14,11.14,0,0,1,2.15,4A20,20,0,0,1,307.71,21.94Zm-4.77,0q0-4.19-1.39-6.21a4.43,4.43,0,0,0-3.88-2,4.37,4.37,0,0,0-3.83,2q-1.36,2-1.36,6.23t1.36,6.21a4.37,4.37,0,0,0,3.83,2,4.91,4.91,0,0,0,2.23-.5,4.39,4.39,0,0,0,1.65-1.51,7.89,7.89,0,0,0,1-2.57A16.3,16.3,0,0,0,302.94,21.94Z"/></g></g></svg>