<svg xmlns="http://www.w3.org/2000/svg" viewBox="0 0 812.14 346.43"><defs><style>.cls-1{fill:#fff;fill-rule:evenodd;}</style></defs><g id="Layer_2" data-name="Layer 2"><g id="Layer_1-2" data-name="Layer 1"><path class="cls-1" d="M589.58,151.61a34.26,34.26,0,1,1-34.5,34,34.26,34.26,0,0,1,34.5-34"/><path class="cls-1" d="M315.84,132.87a177.4,177.4,0,0,1,12.54,25.26h0c11.81,28.53,53.29,22.68,61.7-4.87,10.13-42.34,24.61-72.32,41.24-89.65,8.78-9.15,17.85-14.31,26.75-15.39,8.55-1,18,1.77,27.76,8.47,17.49,12,24.18,41,40.13,75.53,18.93,41.25,80.5,11.07,58.2-28.19-19.83-42.94-46.88-70.42-71.15-87C493.37,3.53,472.82-1.88,452.43.58,432.4,3,413.51,13,396.8,30.44c-16.43,17.13-30.94,41.85-42.3,73.85A125.23,125.23,0,0,0,336.8,82.6c-12.52-12-26.55-19.16-41.84-20.24-15.61-1.11-31.24,4-46.4,16.65-14.23,11.84-28.38,31-41.94,58.88q-4.38,9-8.45,18.61h0Q194.26,165.7,190,177a24,24,0,0,0,45,16.68q3.48-9.36,7.34-18.49v-.09q3.81-9,7.34-16.25c10.37-21.32,20.3-35.24,29.61-43,9.57-8,15.46-7.23,24.32,1.27a71.1,71.1,0,0,1,9.55,11.62q1.32,1.92,2.63,4.07"/><path class="cls-1" d="M255.23,303.25H175.76a26.32,26.32,0,0,0,7.84,11.34,28.44,28.44,0,0,0,19.67,7.17c7.45-.1,13.34-2.21,17.95-6.41h29.49a51.45,51.45,0,0,1-17.44,21.22A52.7,52.7,0,0,1,203,346.43c-14.43.21-26.93-5.18-37.24-15.24-10.53-10.27-16.19-22.74-16.46-37.47A52.28,52.28,0,0,1,165.4,254.3c11-10.83,24.29-16.37,39.78-15.41,14,.87,25.85,6.72,35.5,16.81,9.26,9.68,14.56,21.29,14.56,34.74,0,4.31,0,9,0,12.81m485.58-51.1c8.12-9,18.75-13.7,31.84-12.62,10.86.9,20.4,4.93,27.94,12.85,8.23,8.64,11.55,19.79,11.55,31.57v60.26H787V282.53a21.44,21.44,0,0,0-4.61-13.9,13.21,13.21,0,0,0-10.89-5.08,18.86,18.86,0,0,0-13,4.9,14.33,14.33,0,0,0-5,11.4v64.37h-25.3V279.85a14.31,14.31,0,0,0-5.14-11.4,18.64,18.64,0,0,0-12.89-4.9,12.87,12.87,0,0,0-10.73,5.08c-3.28,4.07-4.45,8.72-4.45,13.9v61.68H669.8V284c0-11.75,3.2-22.86,11.37-31.54,7.47-7.94,17-12,27.81-12.88C722.06,238.45,732.68,243.17,740.81,252.15Zm-150.43,0c8.12-9,18.75-13.7,31.84-12.62,10.86.9,20.4,4.93,27.94,12.85,8.23,8.64,11.55,19.79,11.55,31.57v60.26H636.56V282.53a21.44,21.44,0,0,0-4.61-13.9,13.21,13.21,0,0,0-10.89-5.08,18.86,18.86,0,0,0-13,4.9,14.3,14.3,0,0,0-5,11.4v64.37h-25.3V279.85a14.31,14.31,0,0,0-5.14-11.4,18.64,18.64,0,0,0-12.89-4.9A12.87,12.87,0,0,0,549,268.63c-3.28,4.07-4.45,8.72-4.45,13.9v61.68H519.38V284c0-11.75,3.2-22.86,11.37-31.54,7.47-7.94,17-12,27.81-12.88C571.63,238.45,582.25,243.17,590.38,252.15Zm-200-10.74H443v59.15a20.14,20.14,0,0,0,6.34,15.11,20.49,20.49,0,0,0,15,6.25,21.78,21.78,0,0,0,21.35-21.36V241.41h24.83v57.73c0,12.88-4.18,24.38-13.17,33.66s-20.18,13.63-33,13.63-24.17-4.34-33.17-13.63-13-20.86-13-33.66V272.59l13.41-7.3H390.39v44.5c0,10.13,4.45,13.71,14.39,13.71h11.29v22.61H404.78c-22.8,0-39.22-9.87-39.22-34.27V220.9h24.83v20.51ZM356,286.49v57.72H331.18v-59a20.52,20.52,0,0,0-6.53-15.14,19.92,19.92,0,0,0-14.82-6.37,20.6,20.6,0,0,0-15.14,6.37,20.36,20.36,0,0,0-6.37,15.14v59H263.49V286.49c0-12.89,4.14-24.29,13.19-33.53s20.29-13.6,33.14-13.6,24,4.45,33,13.6S356,273.59,356,286.49ZM71,252.15c8.12-9,18.75-13.7,31.84-12.62,10.86.9,20.4,4.93,27.94,12.85C139,261,142.34,272.17,142.34,284v60.26H117.19V282.53a21.44,21.44,0,0,0-4.61-13.9,13.19,13.19,0,0,0-10.89-5.08,18.86,18.86,0,0,0-13,4.9,14.3,14.3,0,0,0-5,11.4v64.37H58.36V279.85a14.31,14.31,0,0,0-5.14-11.4,18.64,18.64,0,0,0-12.89-4.9,12.87,12.87,0,0,0-10.73,5.08c-3.28,4.07-4.45,8.72-4.45,13.9v61.68H0V284c0-11.75,3.2-22.86,11.37-31.54,7.47-7.94,17-12,27.81-12.88C52.26,238.45,62.88,243.17,71,252.15ZM176.6,279.53h51.71a29.28,29.28,0,0,0-44.23-9.46A26.41,26.41,0,0,0,176.6,279.53Z"/></g></g></svg>